<svg xmlns="http://www.w3.org/2000/svg" viewBox="0 0 131.47 42.62"><defs><style>.cls-1{fill:#fff;}</style></defs><title>Artboard 1 copy 2</title><g id="Layer_3" data-name="Layer 3"><rect width="40" height="42.62" rx="6.14"/><path class="cls-1" d="M31.15,14.6A13.94,13.94,0,0,0,26,9.49,13.69,13.69,0,0,0,19,7.6a13.76,13.76,0,0,0-7.06,1.89A13.92,13.92,0,0,0,6.81,14.6a13.73,13.73,0,0,0-1.89,7.06A13.65,13.65,0,0,0,7.6,29.92,13.77,13.77,0,0,0,14.53,35a.81.81,0,0,0,.73-.13.72.72,0,0,0,.24-.55s0-.36,0-1,0-1.16,0-1.63l-.42.08a5.07,5.07,0,0,1-1,.06,7.2,7.2,0,0,1-1.27-.13,2.75,2.75,0,0,1-1.22-.55A2.3,2.3,0,0,1,10.74,30l-.18-.42a4.91,4.91,0,0,0-.58-.94A2.22,2.22,0,0,0,9.19,28l-.13-.09a1.26,1.26,0,0,1-.24-.22,1.28,1.28,0,0,1-.17-.26c0-.08,0-.15.1-.21a1.23,1.23,0,0,1,.53-.08l.36.05a2.74,2.74,0,0,1,.91.44,3.12,3.12,0,0,1,.89.95,3.18,3.18,0,0,0,1,1.15,2.19,2.19,0,0,0,1.2.39,5.23,5.23,0,0,0,1-.09,3.67,3.67,0,0,0,.83-.27,3,3,0,0,1,.89-1.89,11.65,11.65,0,0,1-1.87-.33,7.47,7.47,0,0,1-1.72-.71,5,5,0,0,1-1.48-1.23,5.94,5.94,0,0,1-1-1.92A9.2,9.2,0,0,1,10,20.92a5.37,5.37,0,0,1,1.44-3.77,5,5,0,0,1,.13-3.73,2.55,2.55,0,0,1,1.58.25,11.07,11.07,0,0,1,1.52.7c.33.2.59.36.78.5a13.11,13.11,0,0,1,7,0l.7-.44a8.77,8.77,0,0,1,1.68-.81,2.42,2.42,0,0,1,1.48-.2,4.87,4.87,0,0,1,.15,3.73A5.37,5.37,0,0,1,28,20.92a9.25,9.25,0,0,1-.38,2.76,5.57,5.57,0,0,1-1,1.92,5.23,5.23,0,0,1-1.48,1.22,7.65,7.65,0,0,1-1.72.71,11.78,11.78,0,0,1-1.88.33,3.25,3.25,0,0,1,.95,2.6v3.86a.75.75,0,0,0,.23.55.8.8,0,0,0,.73.13,13.7,13.7,0,0,0,6.92-5.08A13.65,13.65,0,0,0,33,21.66a13.82,13.82,0,0,0-1.88-7.06Zm0,0"/><path class="cls-1" d="M63.57,29.21a13.61,13.61,0,0,1-4.46.79,7.47,7.47,0,0,1-5.44-1.92,7.47,7.47,0,0,1-2-5.41c0-4.34,3-7.51,7.88-7.51a9,9,0,0,1,3.62.67l-.45,1.53a7.64,7.64,0,0,0-3.22-.63,5.44,5.44,0,0,0-5.84,5.85c0,3.69,2.22,5.87,5.61,5.87a6,6,0,0,0,2.5-.39V23.73h-3V22.21h4.79Z"/><path class="cls-1" d="M68.5,16.48a1.18,1.18,0,0,1-2.36,0,1.16,1.16,0,0,1,1.19-1.19A1.13,1.13,0,0,1,68.5,16.48ZM66.38,29.85V19.41h1.9V29.85Z"/><path class="cls-1" d="M73.72,16.41v3h2.72v1.45H73.72v5.63c0,1.29.37,2,1.42,2a4.36,4.36,0,0,0,1.1-.13l.09,1.42a4.68,4.68,0,0,1-1.68.26,2.61,2.61,0,0,1-2.05-.8,3.87,3.87,0,0,1-.74-2.72V20.86H70.25V19.41h1.61v-2.5Z"/><path class="cls-1" d="M78.58,14.53h1.89v6.52h0a3.51,3.51,0,0,1,1.36-1.34,3.94,3.94,0,0,1,1.94-.54c1.4,0,3.64.87,3.64,4.47v6.21H85.57v-6c0-1.69-.63-3.11-2.42-3.11a2.73,2.73,0,0,0-2.55,1.9,2.44,2.44,0,0,0-.13.9v6.3H78.58Z"/><path class="cls-1" d="M99.29,27c0,1.07,0,2,.09,2.84H97.7l-.11-1.7h0a3.91,3.91,0,0,1-3.45,1.94c-1.64,0-3.6-.91-3.6-4.57V19.41h1.9v5.78c0,2,.6,3.33,2.33,3.33a2.67,2.67,0,0,0,2.67-2.7V19.41h1.9Z"/><path class="cls-1" d="M102.36,29.85c0-.71.08-1.77.08-2.69V14.53h1.88v6.56h.05a3.88,3.88,0,0,1,3.56-1.92c2.58,0,4.42,2.16,4.4,5.33,0,3.74-2.35,5.59-4.68,5.59a3.72,3.72,0,0,1-3.5-2h-.07L104,29.85Zm2-4.18a3.83,3.83,0,0,0,.09.69,2.94,2.94,0,0,0,2.85,2.22c2,0,3.17-1.62,3.17-4,0-2.1-1.08-3.89-3.11-3.89A3,3,0,0,0,104.43,23a4.06,4.06,0,0,0-.11.78Z"/></g></svg>