<svg xmlns="http://www.w3.org/2000/svg" xmlns:xlink="http://www.w3.org/1999/xlink" viewBox="0 0 131.47 42.62"><defs><style>.cls-1{fill:#fff;}.cls-2{fill:url(#linear-gradient);}</style><clipPath id="clip-path"><path id="SVGID" class="cls-1" d="M32.79,15.56a10.43,10.43,0,0,0-.65-3.39,7.15,7.15,0,0,0-4.08-4.08,10.23,10.23,0,0,0-3.39-.65c-1.49-.07-2-.08-5.76-.08s-4.26,0-5.75.08a10.17,10.17,0,0,0-3.39.65,7.15,7.15,0,0,0-4.08,4.08A10.17,10.17,0,0,0,5,15.56C5,17.05,5,17.52,5,21.31s0,4.27.08,5.76a10.11,10.11,0,0,0,.65,3.38,7.13,7.13,0,0,0,4.08,4.09,10.43,10.43,0,0,0,3.39.65c1.49.06,2,.08,5.75.08s4.27,0,5.76-.08a10.49,10.49,0,0,0,3.39-.65,7.17,7.17,0,0,0,4.08-4.09,10.36,10.36,0,0,0,.65-3.38c.06-1.49.08-2,.08-5.76s0-4.26-.08-5.75ZM30.27,27a7.68,7.68,0,0,1-.48,2.59,4.61,4.61,0,0,1-2.65,2.65,7.68,7.68,0,0,1-2.59.48c-1.47.07-1.91.08-5.64.08s-4.17,0-5.64-.08a7.68,7.68,0,0,1-2.59-.48A4.63,4.63,0,0,1,8,29.54,7.68,7.68,0,0,1,7.55,27c-.07-1.47-.08-1.91-.08-5.64s0-4.17.08-5.64A7.68,7.68,0,0,1,8,13.08a4.29,4.29,0,0,1,1.05-1.6,4.37,4.37,0,0,1,1.6-1.05A7.68,7.68,0,0,1,13.27,10c1.47-.07,1.92-.08,5.64-.08h0c3.73,0,4.17,0,5.64.08a7.68,7.68,0,0,1,2.59.48,4.32,4.32,0,0,1,1.61,1.05,4.26,4.26,0,0,1,1,1.6,7.68,7.68,0,0,1,.48,2.59c.07,1.47.08,1.92.08,5.64s0,4.17-.08,5.64Zm0,0"/></clipPath><linearGradient id="linear-gradient" x1="93.69" y1="64.36" x2="37.78" y2="-21.73" gradientUnits="userSpaceOnUse"><stop offset="0" stop-color="#e09b3d"/><stop offset="0.3" stop-color="#c74c4d"/><stop offset="0.6" stop-color="#c21975"/><stop offset="1" stop-color="#7024c4"/></linearGradient></defs><title>Artboard 1</title><g id="Layer_1" data-name="Layer 1"><rect class="cls-2" width="131.47" height="42.62" rx="6.14"/><path id="SVGID-2" data-name="SVGID" class="cls-1" d="M32.79,15.56a10.43,10.43,0,0,0-.65-3.39,7.15,7.15,0,0,0-4.08-4.08,10.23,10.23,0,0,0-3.39-.65c-1.49-.07-2-.08-5.76-.08s-4.26,0-5.75.08a10.17,10.17,0,0,0-3.39.65,7.15,7.15,0,0,0-4.08,4.08A10.17,10.17,0,0,0,5,15.56C5,17.05,5,17.52,5,21.31s0,4.27.08,5.76a10.11,10.11,0,0,0,.65,3.38,7.13,7.13,0,0,0,4.08,4.09,10.43,10.43,0,0,0,3.39.65c1.49.06,2,.08,5.75.08s4.27,0,5.76-.08a10.49,10.49,0,0,0,3.39-.65,7.17,7.17,0,0,0,4.08-4.09,10.36,10.36,0,0,0,.65-3.38c.06-1.49.08-2,.08-5.76s0-4.26-.08-5.75ZM30.27,27a7.68,7.68,0,0,1-.48,2.59,4.61,4.61,0,0,1-2.65,2.65,7.68,7.68,0,0,1-2.59.48c-1.47.07-1.91.08-5.64.08s-4.17,0-5.64-.08a7.68,7.68,0,0,1-2.59-.48A4.63,4.63,0,0,1,8,29.54,7.68,7.68,0,0,1,7.55,27c-.07-1.47-.08-1.91-.08-5.64s0-4.17.08-5.64A7.68,7.68,0,0,1,8,13.08a4.29,4.29,0,0,1,1.05-1.6,4.37,4.37,0,0,1,1.6-1.05A7.68,7.68,0,0,1,13.27,10c1.47-.07,1.92-.08,5.64-.08h0c3.73,0,4.17,0,5.64.08a7.68,7.68,0,0,1,2.59.48,4.32,4.32,0,0,1,1.61,1.05,4.26,4.26,0,0,1,1,1.6,7.68,7.68,0,0,1,.48,2.59c.07,1.47.08,1.92.08,5.64s0,4.17-.08,5.64Zm0,0"/><path id="SVGID-3" data-name="SVGID" class="cls-1" d="M18.91,14.15a7.17,7.17,0,1,0,7.17,7.16,7.15,7.15,0,0,0-7.17-7.16Zm0,11.81a4.65,4.65,0,1,1,4.66-4.65A4.65,4.65,0,0,1,18.91,26Zm0,0"/><path id="SVGID-4" data-name="SVGID" class="cls-1" d="M28,13.86a1.68,1.68,0,1,1-1.68-1.67A1.68,1.68,0,0,1,28,13.86Zm0,0"/><path class="cls-1" d="M40.6,13.79V28.33H38.72V13.79Z"/><path class="cls-1" d="M44,20.71c0-1.08,0-2-.09-2.82h1.68l.11,1.72h.05a3.82,3.82,0,0,1,3.45-2c1.44,0,3.69.86,3.69,4.44v6.24H51v-6c0-1.68-.63-3.09-2.42-3.09a2.69,2.69,0,0,0-2.54,2,2.59,2.59,0,0,0-.13.88v6.28H44Z"/><path class="cls-1" d="M55.75,26.39a5,5,0,0,0,2.5.75c1.38,0,2-.69,2-1.55s-.54-1.4-1.94-1.92c-1.88-.67-2.77-1.71-2.77-3,0-1.68,1.36-3.06,3.61-3.06a5.21,5.21,0,0,1,2.57.65l-.48,1.38a4,4,0,0,0-2.14-.61c-1.12,0-1.74.65-1.74,1.43s.62,1.25,2,1.77c1.81.69,2.74,1.59,2.74,3.15,0,1.83-1.42,3.12-3.9,3.12a6,6,0,0,1-2.94-.71Z"/><path class="cls-1" d="M66.84,14.89v3h2.72v1.44H66.84V25c0,1.3.37,2,1.42,2a3.94,3.94,0,0,0,1.1-.13l.09,1.43a4.71,4.71,0,0,1-1.68.25,2.64,2.64,0,0,1-2-.79A3.87,3.87,0,0,1,65,25v-5.7H63.37V17.89H65V15.38Z"/><path class="cls-1" d="M77.48,28.33,77.33,27h-.07a3.88,3.88,0,0,1-3.19,1.56,3,3,0,0,1-3.2-3c0-2.53,2.25-3.91,6.28-3.89v-.21a2.15,2.15,0,0,0-2.37-2.42,5.18,5.18,0,0,0-2.72.78l-.43-1.25a6.5,6.5,0,0,1,3.43-.93c3.19,0,4,2.18,4,4.27v3.91a14.66,14.66,0,0,0,.17,2.5ZM77.2,23c-2.07,0-4.43.32-4.43,2.35a1.68,1.68,0,0,0,1.8,1.81,2.6,2.6,0,0,0,2.52-1.74,2.18,2.18,0,0,0,.11-.61Z"/><path class="cls-1" d="M91.1,17.89c0,.75-.09,1.59-.09,2.87v6.06c0,2.39-.48,3.86-1.49,4.77a5.53,5.53,0,0,1-3.8,1.25A6.73,6.73,0,0,1,82.25,32l.47-1.45a5.91,5.91,0,0,0,3.07.82c1.94,0,3.36-1,3.36-3.65V26.54h0a3.72,3.72,0,0,1-3.32,1.75c-2.59,0-4.45-2.2-4.45-5.1,0-3.53,2.31-5.54,4.71-5.54a3.49,3.49,0,0,1,3.26,1.81h0l.08-1.57Zm-2,4.12a2.63,2.63,0,0,0-.11-.87,2.72,2.72,0,0,0-2.65-2c-1.81,0-3.11,1.53-3.11,3.95,0,2.05,1,3.75,3.09,3.75A2.77,2.77,0,0,0,89,24.9a3.23,3.23,0,0,0,.15-1Z"/><path class="cls-1" d="M94,21.14c0-1.23,0-2.28-.08-3.25h1.66l.06,2.05h.09a3.12,3.12,0,0,1,2.89-2.29,2.17,2.17,0,0,1,.54.06V19.5a3.06,3.06,0,0,0-.65-.06A2.66,2.66,0,0,0,96,21.88a4.67,4.67,0,0,0-.09.88v5.57H94Z"/><path class="cls-1" d="M106.77,28.33,106.61,27h-.06a3.9,3.9,0,0,1-3.19,1.56,3,3,0,0,1-3.2-3c0-2.53,2.25-3.91,6.28-3.89v-.21a2.15,2.15,0,0,0-2.37-2.42,5.15,5.15,0,0,0-2.72.78l-.43-1.25a6.47,6.47,0,0,1,3.43-.93c3.19,0,4,2.18,4,4.27v3.91a14.66,14.66,0,0,0,.17,2.5ZM106.49,23c-2.08,0-4.43.32-4.43,2.35a1.68,1.68,0,0,0,1.79,1.81,2.61,2.61,0,0,0,2.53-1.74,2.18,2.18,0,0,0,.11-.61Z"/><path class="cls-1" d="M111.39,20.71c0-1.08,0-2-.09-2.82H113l.09,1.68h.06a3.6,3.6,0,0,1,3.28-1.92,3.09,3.09,0,0,1,3,2.09h0a4.26,4.26,0,0,1,1.17-1.36,3.56,3.56,0,0,1,2.3-.73c1.39,0,3.44.9,3.44,4.53v6.15h-1.86V22.42c0-2-.73-3.22-2.27-3.22a2.45,2.45,0,0,0-2.24,1.73,3,3,0,0,0-.15.95v6.45h-1.86V22.07c0-1.66-.73-2.87-2.18-2.87a2.83,2.83,0,0,0-2.5,2.83v6.3h-1.85Z"/></g></svg>