<svg id="Layer_4" data-name="Layer 4" xmlns="http://www.w3.org/2000/svg" viewBox="0 0 131.47 42.62"><defs><style>.cls-1{fill:#0077b5;}.cls-2{fill:#fff;}</style></defs><title>Artboard 1 copy 3</title><rect class="cls-1" width="131.47" height="42.62" rx="6.14"/><path class="cls-2" d="M45.4,15.31h1.87v13h6.22v1.57H45.4Z"/><path class="cls-2" d="M57.63,16.48a1.18,1.18,0,0,1-2.35,0,1.16,1.16,0,0,1,1.19-1.19A1.13,1.13,0,0,1,57.63,16.48ZM55.52,29.85V19.41h1.9V29.85Z"/><path class="cls-2" d="M60.57,22.24c0-1.08,0-2-.09-2.83h1.68l.11,1.73h0a3.84,3.84,0,0,1,3.46-2c1.44,0,3.69.87,3.69,4.45v6.23h-1.9v-6c0-1.68-.63-3.08-2.42-3.08a2.68,2.68,0,0,0-2.54,1.94,2.63,2.63,0,0,0-.13.88v6.28h-1.9Z"/><path class="cls-2" d="M74.42,24.2h0c.25-.37.62-.82.92-1.19l3.07-3.6h2.28l-4,4.29,4.6,6.15H79l-3.61-5-1,1.08v3.92H72.55V14.53h1.87Z"/><path class="cls-2" d="M83.72,25a3.35,3.35,0,0,0,3.59,3.62,6.88,6.88,0,0,0,2.89-.54l.32,1.36a8.47,8.47,0,0,1-3.47.65c-3.22,0-5.14-2.12-5.14-5.27s1.86-5.63,4.9-5.63c3.41,0,4.32,3,4.32,4.92a7.44,7.44,0,0,1-.07.89Zm5.57-1.36c0-1.21-.49-3.09-2.63-3.09-1.92,0-2.76,1.77-2.91,3.09Z"/><path class="cls-2" d="M102.5,14.53V27.16c0,.92,0,2,.09,2.69h-1.71L100.79,28h0a3.85,3.85,0,0,1-3.56,2.05c-2.52,0-4.47-2.14-4.47-5.31,0-3.47,2.14-5.61,4.69-5.61a3.51,3.51,0,0,1,3.15,1.6h0V14.53Zm-1.9,9.13a3.12,3.12,0,0,0-.09-.8,2.78,2.78,0,0,0-2.74-2.2c-2,0-3.13,1.73-3.13,4,0,2.11,1,3.86,3.09,3.86a2.85,2.85,0,0,0,2.78-2.27,3,3,0,0,0,.09-.82Z"/><path class="cls-2" d="M107.77,16.48a1.18,1.18,0,0,1-2.36,0,1.16,1.16,0,0,1,1.19-1.19A1.13,1.13,0,0,1,107.77,16.48Zm-2.12,13.37V19.41h1.9V29.85Z"/><path class="cls-2" d="M110.7,22.24c0-1.08,0-2-.08-2.83h1.68l.11,1.73h0a3.84,3.84,0,0,1,3.45-2c1.45,0,3.69.87,3.69,4.45v6.23h-1.9v-6c0-1.68-.62-3.08-2.41-3.08a2.69,2.69,0,0,0-2.55,1.94,2.63,2.63,0,0,0-.13.88v6.28h-1.9Z"/><path class="cls-2" d="M30.5,7.24h-23A2.55,2.55,0,0,0,4.91,9.79v23a2.55,2.55,0,0,0,2.54,2.55H30.5a2.55,2.55,0,0,0,2.55-2.55v-23A2.55,2.55,0,0,0,30.5,7.24ZM13.62,31.54a.74.74,0,0,1-.74.74H9.72A.74.74,0,0,1,9,31.54V18.32a.74.74,0,0,1,.74-.74h3.16a.74.74,0,0,1,.74.74ZM11.3,16.34a3,3,0,1,1,3-3A3,3,0,0,1,11.3,16.34ZM30.09,31.6a.68.68,0,0,1-.68.68H26a.68.68,0,0,1-.68-.68V25.4c0-.93.27-4-2.42-4-2.08,0-2.51,2.14-2.59,3.1V31.6a.69.69,0,0,1-.68.68H16.38a.69.69,0,0,1-.68-.68V18.26a.69.69,0,0,1,.68-.68h3.28a.69.69,0,0,1,.68.68v1.16c.77-1.16,1.92-2.06,4.37-2.06,5.41,0,5.38,5.06,5.38,7.84v6.4Z"/></svg>