<svg xmlns="http://www.w3.org/2000/svg" viewBox="0 0 131.47 42.62"><defs><style>.cls-1{fill:#03a9f4;}.cls-2{fill:#fff;}</style></defs><title>Artboard 1 copy</title><g id="Layer_2" data-name="Layer 2"><rect class="cls-1" width="131.47" height="42.62" rx="6.14"/><path class="cls-2" d="M38.51,10.91a14.42,14.42,0,0,1-4,1.09,6.84,6.84,0,0,0,3-3.81,13.56,13.56,0,0,1-4.36,1.67,6.88,6.88,0,0,0-11.9,4.7,7.27,7.27,0,0,0,.16,1.57A19.49,19.49,0,0,1,7.29,8.94a6.88,6.88,0,0,0,2.12,9.19,6.73,6.73,0,0,1-3.11-.85v.08a6.91,6.91,0,0,0,5.51,6.76,7,7,0,0,1-1.8.22,6.26,6.26,0,0,1-1.31-.11A7,7,0,0,0,15.13,29,13.82,13.82,0,0,1,6.6,32,14.75,14.75,0,0,1,5,31.86a19.36,19.36,0,0,0,10.55,3.08c12.65,0,19.57-10.48,19.57-19.57,0-.3,0-.6,0-.89A14,14,0,0,0,38.51,10.91Z"/><path class="cls-2" d="M57.5,16.54H53.07v-1.6H63.84v1.6H59.4v13H57.5Z"/><path class="cls-2" d="M65.29,19l1.38,5.31c.3,1.17.58,2.25.78,3.32h.06c.24-1.05.58-2.17.93-3.3L70.14,19h1.6l1.62,5.23c.39,1.25.69,2.35.93,3.4h.06a30,30,0,0,1,.8-3.38L76.64,19h1.87L75.15,29.49H73.42l-1.59-5a33.84,33.84,0,0,1-.93-3.43h-.05a30.39,30.39,0,0,1-.94,3.45l-1.69,5H66.5L63.35,19Z"/><path class="cls-2" d="M82.53,16.11a1.18,1.18,0,0,1-2.35,0,1.16,1.16,0,0,1,1.19-1.19A1.13,1.13,0,0,1,82.53,16.11ZM80.42,29.49V19h1.9V29.49Z"/><path class="cls-2" d="M87.75,16v3h2.72v1.45H87.75v5.63c0,1.3.37,2,1.43,2a4.43,4.43,0,0,0,1.1-.13l.09,1.42a4.49,4.49,0,0,1-1.69.26,2.64,2.64,0,0,1-2.05-.8,3.84,3.84,0,0,1-.73-2.71v-5.7H84.28V19H85.9v-2.5Z"/><path class="cls-2" d="M94.9,16v3h2.72v1.45H94.9v5.63c0,1.3.36,2,1.42,2a4.36,4.36,0,0,0,1.1-.13l.09,1.42a4.46,4.46,0,0,1-1.68.26,2.61,2.61,0,0,1-2-.8A3.84,3.84,0,0,1,93,26.19v-5.7H91.42V19H93v-2.5Z"/><path class="cls-2" d="M100.68,24.61a3.35,3.35,0,0,0,3.58,3.63,7,7,0,0,0,2.9-.54l.32,1.36a8.51,8.51,0,0,1-3.47.64c-3.22,0-5.14-2.11-5.14-5.26s1.86-5.63,4.9-5.63c3.41,0,4.31,3,4.31,4.92a7.69,7.69,0,0,1-.06.88Zm5.57-1.36c0-1.21-.5-3.08-2.63-3.08-1.92,0-2.77,1.77-2.92,3.08Z"/><path class="cls-2" d="M110.44,22.3c0-1.23,0-2.29-.09-3.26H112l.07,2.05h.08a3.14,3.14,0,0,1,2.9-2.28,2.29,2.29,0,0,1,.54.06v1.79a3.13,3.13,0,0,0-.65-.06A2.66,2.66,0,0,0,112.4,23a5.88,5.88,0,0,0-.08.89v5.57h-1.88Z"/></g></svg>